<?xml version="1.0" standalone="no"?>
<!DOCTYPE svg PUBLIC "-//W3C//DTD SVG 20010904//EN"
 "http://www.w3.org/TR/2001/REC-SVG-20010904/DTD/svg10.dtd">
<svg version="1.0" xmlns="http://www.w3.org/2000/svg"
 width="531.000000pt" height="468.000000pt" viewBox="0 0 531.000000 468.000000"
 preserveAspectRatio="xMidYMid meet">
<metadata>
Created by potrace 1.16, written by Peter Selinger 2001-2019
</metadata>
<g transform="translate(0.000000,468.000000) scale(0.100000,-0.100000)"
fill="#000000" stroke="none">
<path d="M125 4555 c11 -8 309 -221 663 -475 l643 -460 542 0 542 0 52 -24
c63 -30 107 -87 124 -160 15 -70 -7 -142 -61 -196 -73 -73 -18 -70 -1122 -70
l-988 0 0 -694 0 -695 258 -278 c141 -154 374 -406 517 -561 l260 -282 3 807
2 808 210 -210 c116 -115 210 -215 210 -221 0 -9 395 -400 494 -489 163 -147
286 -253 410 -350 48 -39 112 -89 141 -113 30 -23 56 -38 59 -34 3 4 -50 56
-117 114 -67 59 -133 117 -147 130 -14 13 -95 87 -180 164 -85 78 -171 159
-190 180 l-35 38 55 -39 c30 -22 84 -64 120 -95 36 -30 74 -62 85 -70 20 -15
20 -14 1 8 -51 60 9 18 185 -128 169 -140 384 -310 392 -310 2 0 3 8 4 18 1
10 -18 30 -45 49 -26 18 -65 50 -87 71 -22 21 -60 53 -84 72 -25 19 -55 44
-67 55 -13 11 -40 34 -61 52 -21 18 -53 45 -71 61 -18 17 -54 47 -79 68 -56
47 -84 76 -79 82 3 2 37 -22 76 -55 39 -32 90 -73 113 -91 23 -18 59 -46 80
-63 72 -59 36 -21 -85 87 -67 60 -133 119 -146 132 -14 12 -28 22 -31 22 -3 0
-32 29 -63 64 -43 48 -54 67 -45 74 9 7 31 -6 82 -50 39 -33 84 -69 100 -81
l30 -20 -27 29 c-29 31 -36 54 -17 54 10 0 252 -189 329 -256 30 -27 321 -252
405 -314 87 -64 233 -160 244 -160 6 0 14 -7 18 -15 5 -8 26 -21 48 -31 54
-22 43 -13 -100 86 -213 147 -477 356 -489 387 -8 19 -5 17 179 -122 245 -185
462 -338 533 -374 42 -22 22 -5 -45 39 -92 60 -143 100 -143 112 0 11 14 3
162 -90 53 -33 95 -55 92 -49 -2 7 -23 23 -47 36 -111 63 -586 414 -595 440
-7 22 20 7 117 -64 49 -36 92 -65 96 -65 4 0 -20 20 -53 45 -34 24 -78 62 -99
85 -21 22 -44 40 -50 40 -7 0 -13 5 -13 10 0 17 57 -18 107 -65 26 -25 52 -45
59 -45 6 0 18 -10 26 -23 9 -12 28 -29 44 -37 16 -8 48 -29 72 -48 23 -19 66
-48 95 -66 28 -17 99 -63 157 -102 108 -73 150 -98 150 -90 0 5 -46 37 -205
144 -60 40 -128 88 -149 105 -82 66 -182 140 -203 150 -31 14 -31 41 -1 31 25
-7 55 -27 135 -89 117 -90 143 -106 154 -99 7 4 9 3 6 -3 -4 -6 1 -17 11 -24
15 -13 16 -12 4 3 -9 11 -9 17 -2 20 6 2 -38 39 -97 83 -141 105 -343 267
-367 294 -59 66 33 9 267 -166 68 -50 150 -106 183 -124 32 -17 68 -40 79 -49
50 -44 104 -72 125 -65 20 6 21 7 3 21 -37 28 3 12 95 -37 52 -29 111 -68 131
-88 20 -20 48 -41 63 -48 26 -12 26 -12 12 15 -12 25 -78 77 -212 169 -29 20
-50 38 -48 40 5 6 184 -103 291 -177 75 -52 194 -118 189 -106 -3 7 -12 17
-22 24 -9 6 -52 36 -94 67 -43 30 -78 52 -78 49 0 -4 -12 6 -27 21 -15 15 -44
35 -64 45 -148 76 -879 650 -879 691 0 4 19 7 43 7 46 -2 65 -13 177 -103 41
-33 87 -68 101 -77 25 -16 26 -16 21 8 -7 40 17 29 123 -54 122 -95 390 -287
325 -232 -14 11 -41 34 -60 50 -38 32 -75 62 -304 240 -151 118 -289 240 -271
240 6 0 48 -30 95 -68 117 -93 237 -183 283 -211 22 -13 50 -34 62 -47 13 -13
29 -24 35 -24 10 0 158 -107 210 -153 14 -11 45 -32 70 -45 24 -14 50 -31 58
-38 7 -8 18 -14 23 -14 5 0 8 -6 6 -13 -1 -7 10 -13 26 -15 15 -2 27 -9 27
-18 0 -8 7 -14 16 -14 9 0 32 -9 50 -21 50 -30 42 -14 -8 18 -58 37 -114 85
-110 95 1 5 -10 14 -25 20 -16 7 -40 22 -54 35 -14 13 -62 50 -107 81 -133 95
-266 198 -293 228 -33 37 -77 76 -166 146 -176 141 -388 333 -593 538 -150
150 -144 131 -60 180 245 143 452 397 533 655 44 137 51 192 51 365 0 97 -5
190 -12 225 -90 418 -390 759 -782 888 -174 58 -154 57 -1499 56 -1064 0
-1233 -2 -1216 -14z"/>
</g>
</svg>
